<?xml version="1.0" encoding="UTF-8" standalone="no"?>
<!DOCTYPE svg PUBLIC "-//W3C//DTD SVG 1.1//EN"
 "http://www.w3.org/Graphics/SVG/1.1/DTD/svg11.dtd">
<!-- Generated by graphviz version 2.40.1 (20161225.0304)
 -->
<!-- Title: Causal model Pages: 1 -->
<svg width="504pt" height="332pt"
 viewBox="0.00 0.00 504.19 332.00" xmlns="http://www.w3.org/2000/svg" xmlns:xlink="http://www.w3.org/1999/xlink">
<g id="graph0" class="graph" transform="scale(1 1) rotate(0) translate(4 328)">
<title>Causal model</title>
<polygon fill="#ffffff" stroke="transparent" points="-4,4 -4,-328 500.1908,-328 500.1908,4 -4,4"/>
<!-- f00 -->
<g id="node1" class="node">
<title>f00</title>
<ellipse fill="none" stroke="#00ff00" cx="158.1908" cy="-234" rx="27" ry="18"/>
<text text-anchor="middle" x="158.1908" y="-230.3" font-family="Times,serif" font-size="14.00" fill="#000000">f00</text>
</g>
<!-- f04 -->
<g id="node5" class="node">
<title>f04</title>
<ellipse fill="none" stroke="#00ff00" cx="195.1908" cy="-162" rx="27" ry="18"/>
<text text-anchor="middle" x="195.1908" y="-158.3" font-family="Times,serif" font-size="14.00" fill="#000000">f04</text>
</g>
<!-- f00&#45;&gt;f04 -->
<g id="edge13" class="edge">
<title>f00&#45;&gt;f04</title>
<path fill="none" stroke="#000000" d="M166.9593,-216.937C171.3188,-208.4537 176.6861,-198.0092 181.5661,-188.513"/>
<polygon fill="#000000" stroke="#000000" points="184.7705,-189.9348 186.2283,-179.4407 178.5445,-186.7352 184.7705,-189.9348"/>
</g>
<!-- f01 -->
<g id="node2" class="node">
<title>f01</title>
<ellipse fill="none" stroke="#00ff00" cx="103.1908" cy="-18" rx="27" ry="18"/>
<text text-anchor="middle" x="103.1908" y="-14.3" font-family="Times,serif" font-size="14.00" fill="#000000">f01</text>
</g>
<!-- f01&#45;&gt;f00 -->
<g id="edge8" class="edge">
<title>f01&#45;&gt;f00</title>
<path fill="none" stroke="#000000" d="M84.8126,-31.5066C48.3823,-59.9381 -26.4326,-127.6523 10.1908,-180 23.3885,-198.8641 83.2295,-216.2698 122.6612,-225.9776"/>
<polygon fill="#000000" stroke="#000000" points="121.9091,-229.3965 132.4505,-228.3337 123.5472,-222.5908 121.9091,-229.3965"/>
</g>
<!-- f01&#45;&gt;f01 -->
<g id="edge9" class="edge">
<title>f01&#45;&gt;f01</title>
<path fill="none" stroke="#000000" d="M123.0859,-30.4321C135.8788,-33.6753 148.1908,-29.5313 148.1908,-18 148.1908,-9.6218 141.6914,-5.1433 133.2303,-4.5644"/>
<polygon fill="#000000" stroke="#000000" points="132.6928,-1.1004 123.0859,-5.5679 133.3819,-8.0665 132.6928,-1.1004"/>
</g>
<!-- f02 -->
<g id="node3" class="node">
<title>f02</title>
<ellipse fill="none" stroke="#00ff00" cx="378.1908" cy="-234" rx="27" ry="18"/>
<text text-anchor="middle" x="378.1908" y="-230.3" font-family="Times,serif" font-size="14.00" fill="#000000">f02</text>
</g>
<!-- f02&#45;&gt;f02 -->
<g id="edge11" class="edge">
<title>f02&#45;&gt;f02</title>
<path fill="none" stroke="#000000" d="M398.0859,-246.4321C410.8788,-249.6753 423.1908,-245.5313 423.1908,-234 423.1908,-225.6218 416.6914,-221.1433 408.2303,-220.5644"/>
<polygon fill="#000000" stroke="#000000" points="407.6928,-217.1004 398.0859,-221.5679 408.3819,-224.0665 407.6928,-217.1004"/>
</g>
<!-- f03 -->
<g id="node4" class="node">
<title>f03</title>
<ellipse fill="none" stroke="#00ff00" cx="103.1908" cy="-90" rx="27" ry="18"/>
<text text-anchor="middle" x="103.1908" y="-86.3" font-family="Times,serif" font-size="14.00" fill="#000000">f03</text>
</g>
<!-- f03&#45;&gt;f01 -->
<g id="edge10" class="edge">
<title>f03&#45;&gt;f01</title>
<path fill="none" stroke="#000000" d="M103.1908,-71.8314C103.1908,-64.131 103.1908,-54.9743 103.1908,-46.4166"/>
<polygon fill="#000000" stroke="#000000" points="106.6909,-46.4132 103.1908,-36.4133 99.6909,-46.4133 106.6909,-46.4132"/>
</g>
<!-- f04&#45;&gt;f03 -->
<g id="edge12" class="edge">
<title>f04&#45;&gt;f03</title>
<path fill="none" stroke="#000000" d="M177.4523,-148.1177C163.7067,-137.3602 144.4642,-122.3009 129.0111,-110.2072"/>
<polygon fill="#000000" stroke="#000000" points="130.9071,-107.2466 120.8749,-103.8397 126.5929,-112.7591 130.9071,-107.2466"/>
</g>
<!-- f04&#45;&gt;f04 -->
<g id="edge14" class="edge">
<title>f04&#45;&gt;f04</title>
<path fill="none" stroke="#000000" d="M215.0859,-174.4321C227.8788,-177.6753 240.1908,-173.5313 240.1908,-162 240.1908,-153.6218 233.6914,-149.1433 225.2303,-148.5644"/>
<polygon fill="#000000" stroke="#000000" points="224.6928,-145.1004 215.0859,-149.5679 225.3819,-152.0665 224.6928,-145.1004"/>
</g>
<!-- f05 -->
<g id="node6" class="node">
<title>f05</title>
<ellipse fill="none" stroke="#00ff00" cx="451.1908" cy="-306" rx="27" ry="18"/>
<text text-anchor="middle" x="451.1908" y="-302.3" font-family="Times,serif" font-size="14.00" fill="#000000">f05</text>
</g>
<!-- f05&#45;&gt;f05 -->
<g id="edge15" class="edge">
<title>f05&#45;&gt;f05</title>
<path fill="none" stroke="#000000" d="M471.0859,-318.4321C483.8788,-321.6753 496.1908,-317.5313 496.1908,-306 496.1908,-297.6218 489.6914,-293.1433 481.2303,-292.5644"/>
<polygon fill="#000000" stroke="#000000" points="480.6928,-289.1004 471.0859,-293.5679 481.3819,-296.0665 480.6928,-289.1004"/>
</g>
<!-- a00 -->
<g id="node7" class="node">
<title>a00</title>
<ellipse fill="none" stroke="#ff0000" cx="305.1908" cy="-234" rx="27.8951" ry="18"/>
<text text-anchor="middle" x="305.1908" y="-230.3" font-family="Times,serif" font-size="14.00" fill="#000000">a00</text>
</g>
<!-- a00&#45;&gt;f01 -->
<g id="edge2" class="edge">
<title>a00&#45;&gt;f01</title>
<path fill="none" stroke="#000000" d="M296.4761,-216.7146C286.488,-197.7912 268.9304,-167.0729 249.1908,-144 212.5836,-101.2112 161.0596,-60.2605 130.0196,-37.2015"/>
<polygon fill="#000000" stroke="#000000" points="131.9673,-34.2893 121.8373,-31.1854 127.8207,-39.929 131.9673,-34.2893"/>
</g>
<!-- a00&#45;&gt;f04 -->
<g id="edge6" class="edge">
<title>a00&#45;&gt;f04</title>
<path fill="none" stroke="#000000" d="M285.5251,-221.1278C268.1621,-209.763 242.6519,-193.0654 223.165,-180.3104"/>
<polygon fill="#000000" stroke="#000000" points="224.9702,-177.3089 214.6864,-174.7607 221.1366,-183.1658 224.9702,-177.3089"/>
</g>
<!-- a01 -->
<g id="node8" class="node">
<title>a01</title>
<ellipse fill="none" stroke="#ff0000" cx="231.1908" cy="-234" rx="27.8951" ry="18"/>
<text text-anchor="middle" x="231.1908" y="-230.3" font-family="Times,serif" font-size="14.00" fill="#000000">a01</text>
</g>
<!-- a01&#45;&gt;f04 -->
<g id="edge7" class="edge">
<title>a01&#45;&gt;f04</title>
<path fill="none" stroke="#000000" d="M222.4763,-216.5708C218.2312,-208.0807 213.0373,-197.6929 208.3246,-188.2674"/>
<polygon fill="#000000" stroke="#000000" points="211.4279,-186.6477 203.8252,-179.2687 205.1669,-189.7782 211.4279,-186.6477"/>
</g>
<!-- a02 -->
<g id="node9" class="node">
<title>a02</title>
<ellipse fill="none" stroke="#ff0000" cx="378.1908" cy="-306" rx="27.8951" ry="18"/>
<text text-anchor="middle" x="378.1908" y="-302.3" font-family="Times,serif" font-size="14.00" fill="#000000">a02</text>
</g>
<!-- a02&#45;&gt;f02 -->
<g id="edge3" class="edge">
<title>a02&#45;&gt;f02</title>
<path fill="none" stroke="#000000" d="M378.1908,-287.8314C378.1908,-280.131 378.1908,-270.9743 378.1908,-262.4166"/>
<polygon fill="#000000" stroke="#000000" points="381.6909,-262.4132 378.1908,-252.4133 374.6909,-262.4133 381.6909,-262.4132"/>
</g>
<!-- a03 -->
<g id="node10" class="node">
<title>a03</title>
<ellipse fill="none" stroke="#ff0000" cx="47.1908" cy="-162" rx="27.8951" ry="18"/>
<text text-anchor="middle" x="47.1908" y="-158.3" font-family="Times,serif" font-size="14.00" fill="#000000">a03</text>
</g>
<!-- a03&#45;&gt;f03 -->
<g id="edge4" class="edge">
<title>a03&#45;&gt;f03</title>
<path fill="none" stroke="#000000" d="M59.8981,-145.6621C67.1297,-136.3644 76.3244,-124.5426 84.3785,-114.1873"/>
<polygon fill="#000000" stroke="#000000" points="87.1572,-116.3156 90.5339,-106.2733 81.6317,-112.018 87.1572,-116.3156"/>
</g>
<!-- a04 -->
<g id="node11" class="node">
<title>a04</title>
<ellipse fill="none" stroke="#ff0000" cx="131.1908" cy="-306" rx="27.8951" ry="18"/>
<text text-anchor="middle" x="131.1908" y="-302.3" font-family="Times,serif" font-size="14.00" fill="#000000">a04</text>
</g>
<!-- a04&#45;&gt;f00 -->
<g id="edge1" class="edge">
<title>a04&#45;&gt;f00</title>
<path fill="none" stroke="#000000" d="M137.865,-288.2022C140.9385,-280.0064 144.6525,-270.1024 148.0604,-261.0145"/>
<polygon fill="#000000" stroke="#000000" points="151.3593,-262.1853 151.5935,-251.593 144.805,-259.7274 151.3593,-262.1853"/>
</g>
<!-- a04&#45;&gt;f03 -->
<g id="edge5" class="edge">
<title>a04&#45;&gt;f03</title>
<path fill="none" stroke="#000000" d="M127.9726,-288.0337C126.1499,-277.5449 123.8999,-264.0449 122.1908,-252 115.5429,-205.1476 109.4781,-150.4332 106.0678,-118.0852"/>
<polygon fill="#000000" stroke="#000000" points="109.5361,-117.5984 105.016,-108.0161 102.5739,-118.3257 109.5361,-117.5984"/>
</g>
</g>
</svg>
