<?xml version="1.0" encoding="UTF-8" standalone="no"?>
<!DOCTYPE svg PUBLIC "-//W3C//DTD SVG 1.1//EN"
 "http://www.w3.org/Graphics/SVG/1.1/DTD/svg11.dtd">
<!-- Generated by graphviz version 2.40.1 (20161225.0304)
 -->
<!-- Title: Causal model Pages: 1 -->
<svg width="482pt" height="332pt"
 viewBox="0.00 0.00 482.21 332.00" xmlns="http://www.w3.org/2000/svg" xmlns:xlink="http://www.w3.org/1999/xlink">
<g id="graph0" class="graph" transform="scale(1 1) rotate(0) translate(4 328)">
<title>Causal model</title>
<polygon fill="#ffffff" stroke="transparent" points="-4,4 -4,-328 478.2051,-328 478.2051,4 -4,4"/>
<!-- f00 -->
<g id="node1" class="node">
<title>f00</title>
<ellipse fill="none" stroke="#00ff00" cx="306.2051" cy="-234" rx="27" ry="18"/>
<text text-anchor="middle" x="306.2051" y="-230.3" font-family="Times,serif" font-size="14.00" fill="#000000">f00</text>
</g>
<!-- f02 -->
<g id="node3" class="node">
<title>f02</title>
<ellipse fill="none" stroke="#00ff00" cx="178.2051" cy="-162" rx="27" ry="18"/>
<text text-anchor="middle" x="178.2051" y="-158.3" font-family="Times,serif" font-size="14.00" fill="#000000">f02</text>
</g>
<!-- f00&#45;&gt;f02 -->
<g id="edge10" class="edge">
<title>f00&#45;&gt;f02</title>
<path fill="none" stroke="#000000" d="M285.3548,-222.2717C264.3417,-210.4519 231.7125,-192.0979 207.9794,-178.7481"/>
<polygon fill="#000000" stroke="#000000" points="209.4782,-175.5754 199.0465,-173.7233 206.0463,-181.6764 209.4782,-175.5754"/>
</g>
<!-- f01 -->
<g id="node2" class="node">
<title>f01</title>
<ellipse fill="none" stroke="#00ff00" cx="103.2051" cy="-90" rx="27" ry="18"/>
<text text-anchor="middle" x="103.2051" y="-86.3" font-family="Times,serif" font-size="14.00" fill="#000000">f01</text>
</g>
<!-- f03 -->
<g id="node4" class="node">
<title>f03</title>
<ellipse fill="none" stroke="#00ff00" cx="103.2051" cy="-18" rx="27" ry="18"/>
<text text-anchor="middle" x="103.2051" y="-14.3" font-family="Times,serif" font-size="14.00" fill="#000000">f03</text>
</g>
<!-- f01&#45;&gt;f03 -->
<g id="edge12" class="edge">
<title>f01&#45;&gt;f03</title>
<path fill="none" stroke="#000000" d="M103.2051,-71.8314C103.2051,-64.131 103.2051,-54.9743 103.2051,-46.4166"/>
<polygon fill="#000000" stroke="#000000" points="106.7052,-46.4132 103.2051,-36.4133 99.7052,-46.4133 106.7052,-46.4132"/>
</g>
<!-- f02&#45;&gt;f01 -->
<g id="edge9" class="edge">
<title>f02&#45;&gt;f01</title>
<path fill="none" stroke="#000000" d="M162.665,-147.0816C152.1061,-136.945 137.9607,-123.3654 126.1159,-111.9944"/>
<polygon fill="#000000" stroke="#000000" points="128.363,-109.2998 118.7252,-104.8993 123.5153,-114.3495 128.363,-109.2998"/>
</g>
<!-- f02&#45;&gt;f02 -->
<g id="edge11" class="edge">
<title>f02&#45;&gt;f02</title>
<path fill="none" stroke="#000000" d="M198.1001,-174.4321C210.8931,-177.6753 223.2051,-173.5313 223.2051,-162 223.2051,-153.6218 216.7057,-149.1433 208.2446,-148.5644"/>
<polygon fill="#000000" stroke="#000000" points="207.707,-145.1004 198.1001,-149.5679 208.3961,-152.0665 207.707,-145.1004"/>
</g>
<!-- f03&#45;&gt;f00 -->
<g id="edge8" class="edge">
<title>f03&#45;&gt;f00</title>
<path fill="none" stroke="#000000" d="M119.2404,-32.598C144.1905,-55.5439 193.4626,-101.7953 232.2051,-144 252.0157,-165.5809 273.094,-191.5469 287.6659,-210.0303"/>
<polygon fill="#000000" stroke="#000000" points="284.952,-212.2416 293.8753,-217.9535 290.4617,-207.9237 284.952,-212.2416"/>
</g>
<!-- f03&#45;&gt;f03 -->
<g id="edge13" class="edge">
<title>f03&#45;&gt;f03</title>
<path fill="none" stroke="#000000" d="M123.1001,-30.4321C135.8931,-33.6753 148.2051,-29.5313 148.2051,-18 148.2051,-9.6218 141.7057,-5.1433 133.2446,-4.5644"/>
<polygon fill="#000000" stroke="#000000" points="132.707,-1.1004 123.1001,-5.5679 133.3961,-8.0665 132.707,-1.1004"/>
</g>
<!-- f04 -->
<g id="node5" class="node">
<title>f04</title>
<ellipse fill="none" stroke="#00ff00" cx="429.2051" cy="-234" rx="27" ry="18"/>
<text text-anchor="middle" x="429.2051" y="-230.3" font-family="Times,serif" font-size="14.00" fill="#000000">f04</text>
</g>
<!-- f04&#45;&gt;f04 -->
<g id="edge14" class="edge">
<title>f04&#45;&gt;f04</title>
<path fill="none" stroke="#000000" d="M449.1001,-246.4321C461.8931,-249.6753 474.2051,-245.5313 474.2051,-234 474.2051,-225.6218 467.7057,-221.1433 459.2446,-220.5644"/>
<polygon fill="#000000" stroke="#000000" points="458.707,-217.1004 449.1001,-221.5679 459.3961,-224.0665 458.707,-217.1004"/>
</g>
<!-- a00 -->
<g id="node6" class="node">
<title>a00</title>
<ellipse fill="none" stroke="#ff0000" cx="159.2051" cy="-234" rx="27.8951" ry="18"/>
<text text-anchor="middle" x="159.2051" y="-230.3" font-family="Times,serif" font-size="14.00" fill="#000000">a00</text>
</g>
<!-- a00&#45;&gt;f02 -->
<g id="edge4" class="edge">
<title>a00&#45;&gt;f02</title>
<path fill="none" stroke="#000000" d="M163.9017,-216.2022C166.0027,-208.2406 168.529,-198.6671 170.8701,-189.7957"/>
<polygon fill="#000000" stroke="#000000" points="174.3292,-190.4046 173.4966,-179.8425 167.5609,-188.6185 174.3292,-190.4046"/>
</g>
<!-- a00&#45;&gt;f03 -->
<g id="edge6" class="edge">
<title>a00&#45;&gt;f03</title>
<path fill="none" stroke="#000000" d="M132.6562,-228.2111C93.8252,-219.145 24.5805,-200.5002 10.2051,-180 -23.8959,-131.3699 38.3967,-69.4054 76.6123,-38.0764"/>
<polygon fill="#000000" stroke="#000000" points="79.195,-40.4926 84.8178,-31.5129 74.8224,-35.0262 79.195,-40.4926"/>
</g>
<!-- a01 -->
<g id="node7" class="node">
<title>a01</title>
<ellipse fill="none" stroke="#ff0000" cx="233.2051" cy="-234" rx="27.8951" ry="18"/>
<text text-anchor="middle" x="233.2051" y="-230.3" font-family="Times,serif" font-size="14.00" fill="#000000">a01</text>
</g>
<!-- a01&#45;&gt;f02 -->
<g id="edge5" class="edge">
<title>a01&#45;&gt;f02</title>
<path fill="none" stroke="#000000" d="M220.7247,-217.6621C213.6926,-208.4564 204.7704,-196.7764 196.9168,-186.4953"/>
<polygon fill="#000000" stroke="#000000" points="199.4878,-184.0953 190.636,-178.2733 193.9251,-188.3446 199.4878,-184.0953"/>
</g>
<!-- a02 -->
<g id="node8" class="node">
<title>a02</title>
<ellipse fill="none" stroke="#ff0000" cx="429.2051" cy="-306" rx="27.8951" ry="18"/>
<text text-anchor="middle" x="429.2051" y="-302.3" font-family="Times,serif" font-size="14.00" fill="#000000">a02</text>
</g>
<!-- a02&#45;&gt;f04 -->
<g id="edge7" class="edge">
<title>a02&#45;&gt;f04</title>
<path fill="none" stroke="#000000" d="M429.2051,-287.8314C429.2051,-280.131 429.2051,-270.9743 429.2051,-262.4166"/>
<polygon fill="#000000" stroke="#000000" points="432.7052,-262.4132 429.2051,-252.4133 425.7052,-262.4133 432.7052,-262.4132"/>
</g>
<!-- a03 -->
<g id="node9" class="node">
<title>a03</title>
<ellipse fill="none" stroke="#ff0000" cx="47.2051" cy="-162" rx="27.8951" ry="18"/>
<text text-anchor="middle" x="47.2051" y="-158.3" font-family="Times,serif" font-size="14.00" fill="#000000">a03</text>
</g>
<!-- a03&#45;&gt;f01 -->
<g id="edge2" class="edge">
<title>a03&#45;&gt;f01</title>
<path fill="none" stroke="#000000" d="M59.9124,-145.6621C67.1439,-136.3644 76.3386,-124.5426 84.3927,-114.1873"/>
<polygon fill="#000000" stroke="#000000" points="87.1714,-116.3156 90.5481,-106.2733 81.6459,-112.018 87.1714,-116.3156"/>
</g>
<!-- a04 -->
<g id="node10" class="node">
<title>a04</title>
<ellipse fill="none" stroke="#ff0000" cx="255.2051" cy="-306" rx="27.8951" ry="18"/>
<text text-anchor="middle" x="255.2051" y="-302.3" font-family="Times,serif" font-size="14.00" fill="#000000">a04</text>
</g>
<!-- a04&#45;&gt;f00 -->
<g id="edge1" class="edge">
<title>a04&#45;&gt;f00</title>
<path fill="none" stroke="#000000" d="M267.0337,-289.3008C273.4062,-280.3043 281.3959,-269.0247 288.4947,-259.0029"/>
<polygon fill="#000000" stroke="#000000" points="291.5165,-260.792 294.4406,-250.6087 285.8043,-256.7458 291.5165,-260.792"/>
</g>
<!-- a04&#45;&gt;f01 -->
<g id="edge3" class="edge">
<title>a04&#45;&gt;f01</title>
<path fill="none" stroke="#000000" d="M227.5785,-303.0071C196.6307,-298.0771 147.4981,-285.207 122.2051,-252 92.5824,-213.1087 94.2726,-152.9971 98.5141,-117.9733"/>
<polygon fill="#000000" stroke="#000000" points="101.9962,-118.342 99.8806,-107.9606 95.0605,-117.3955 101.9962,-118.342"/>
</g>
</g>
</svg>
